<?xml version="1.0" encoding="UTF-8" standalone="no"?>
<!-- Created with Inkscape (http://www.inkscape.org/) -->

<svg
   xmlns:dc="http://purl.org/dc/elements/1.1/"
   xmlns:cc="http://creativecommons.org/ns#"
   xmlns:rdf="http://www.w3.org/1999/02/22-rdf-syntax-ns#"
   xmlns:svg="http://www.w3.org/2000/svg"
   xmlns="http://www.w3.org/2000/svg"
   xmlns:sodipodi="http://sodipodi.sourceforge.net/DTD/sodipodi-0.dtd"
   xmlns:inkscape="http://www.inkscape.org/namespaces/inkscape"
   width="256"
   height="256"
   viewBox="0 0 67.733332 67.733335"
   version="1.1"
   id="svg5618"
   inkscape:version="0.92.4 (5da689c313, 2019-01-14)"
   sodipodi:docname="social_preview_square.svg">
  <defs
     id="defs5612">
    <clipPath
       clipPathUnits="userSpaceOnUse"
       id="clipPath22">
      <path
         d="M 0,800 H 800 V 0 H 0 Z"
         id="path20"
         inkscape:connector-curvature="0" />
    </clipPath>
  </defs>
  <sodipodi:namedview
     id="base"
     pagecolor="#ffffff"
     bordercolor="#666666"
     borderopacity="1.0"
     inkscape:pageopacity="0.0"
     inkscape:pageshadow="2"
     inkscape:zoom="3.959798"
     inkscape:cx="121.21187"
     inkscape:cy="104.69732"
     inkscape:document-units="mm"
     inkscape:current-layer="layer1"
     showgrid="false"
     units="px"
     borderlayer="true"
     inkscape:pagecheckerboard="true"
     inkscape:window-width="2560"
     inkscape:window-height="1330"
     inkscape:window-x="-12"
     inkscape:window-y="-12"
     inkscape:window-maximized="1">
    <sodipodi:guide
       position="0,0"
       orientation="0,256"
       id="guide5902"
       inkscape:locked="false" />
    <sodipodi:guide
       position="67.733334,0"
       orientation="-256,0"
       id="guide5904"
       inkscape:locked="false" />
    <sodipodi:guide
       position="67.733334,67.733334"
       orientation="0,-256"
       id="guide5906"
       inkscape:locked="false" />
    <sodipodi:guide
       position="0,67.733334"
       orientation="256,0"
       id="guide5908"
       inkscape:locked="false" />
  </sodipodi:namedview>
  <metadata
     id="metadata5615">
    <rdf:RDF>
      <cc:Work
         rdf:about="">
        <dc:format>image/svg+xml</dc:format>
        <dc:type
           rdf:resource="http://purl.org/dc/dcmitype/StillImage" />
        <dc:title />
      </cc:Work>
    </rdf:RDF>
  </metadata>
  <g
     inkscape:label="Layer 1"
     inkscape:groupmode="layer"
     id="layer1"
     transform="translate(0,-229.26665)">
    <path
       d="M 33.764977,296.99998 H 67.733334 V 229.26665 H 33.764977 Z"
       style="display:inline;fill:#078ee0;fill-opacity:1;fill-rule:nonzero;stroke:none;stroke-width:0.08475078"
       id="path12"
       inkscape:connector-curvature="0"
       inkscape:export-xdpi="96"
       inkscape:export-ydpi="96" />
    <path
       d="M 0,296.99998 H 33.764977 V 229.26665 H 0 Z"
       style="display:inline;fill:#d31f10;fill-opacity:1;fill-rule:nonzero;stroke:none;stroke-width:0.08449678"
       id="path14"
       inkscape:connector-curvature="0"
       inkscape:export-xdpi="96"
       inkscape:export-ydpi="96" />
    <g
       id="g611"
       transform="matrix(0.20894289,0,0,0.20894289,0.06072058,217.54367)">
      <path
         sodipodi:nodetypes="ccccsccccccccsccccccccssccccscscccsccccc"
         inkscape:connector-curvature="0"
         style="fill:#000000;stroke-width:0.17638899"
         d="m 87.632054,171.24237 c 6.2128,0.69658 9.27868,1.25939 13.152626,2.41445 8.93883,2.66522 17.1365,6.73719 26.36882,13.09798 0.99581,0.68608 5.37779,3.99277 5.81882,4.39095 0.1955,0.1765 1.07213,0.91018 1.94807,1.6304 3.70382,3.04538 10.20716,9.34253 11.02921,10.67952 0.47859,0.77841 0.51632,1.82822 0.0942,2.62114 -0.56124,1.05424 -7.4614,7.92768 -10.55715,10.51628 -0.52441,0.43851 -1.23591,1.04246 -1.58112,1.34215 -1.23883,1.07545 -5.40144,4.29311 -6.86682,5.30798 -0.82192,0.56923 -1.96904,1.37231 -2.54917,1.78462 -0.58012,0.4123 -2.0464,1.35118 -3.25839,2.08639 -18.26007,11.07674 -34.533476,14.31732 -51.472986,10.25001 -5.82772,-1.3993 -12.02972,-3.78548 -18.09243,-6.96101 -2.43555,-1.27569 -7.45035,-4.21775 -8.49051,-4.98118 -0.29207,-0.21436 -1.32738,-0.93222 -2.30068,-1.59525 -0.97331,-0.66302 -2.646,-1.87649 -3.71707,-2.69659 -1.78295,-1.36519 -2.56417,-1.98991 -5.13446,-4.10595 -3.14309,-2.58759 -10.01672,-9.31204 -10.58175,-10.35208 -0.39163,-0.72086 -0.40267,-1.67014 -0.0283,-2.42973 0.2717,-0.55119 1.95751,-2.41282 4.46163,-4.92691 5.72309,-5.74592 12.86589,-11.48349 19.48282,-15.64987 2.8094,-1.76897 3.94922,-2.42201 7.91596,-4.53532 3.0836,-1.64281 9.66997,-4.29129 13.64723,-5.48776 2.50665,-0.75407 6.53392,-1.60183 9.60058,-2.02097 2.0811,-0.28443 9.65171,-0.54284 11.11081,-0.37925 z m -60.33975,34.05667 c 0.002,0.4596 5.1326,5.29029 9.12669,8.59353 4.24621,3.51176 8.87487,6.81302 13.18436,9.40336 24.74191,12.91112 35.5207,15.63363 64.294476,2.66926 8.46882,-3.81574 16.20538,-9.52521 27.44822,-20.51927 0.7887,-1.0621 0.69214,-0.68722 -0.51286,-2.63382 -1.88474,-3.0447 -6.454,-6.77464 -7.27162,-7.50936 -6.49998,-5.84084 -15.01672,-11.42271 -24.22629,-15.44394 -7.90713,-3.45254 -16.300246,-5.77961 -24.648556,-5.84732 -9.88198,-0.0801 -20.9916,2.51507 -31.38827,7.74484 -6.42362,3.23125 -12.4574,7.64294 -18.11408,12.52699 -2.66517,2.30114 -5.78858,4.81699 -8.45055,7.44885 -0.88526,0.87524 -0.75488,2.14698 0.55848,3.56688 z"
         id="path5931-0" />
      <path
         sodipodi:nodetypes="cc"
         inkscape:connector-curvature="0"
         id="path2621"
         d="m 134.44334,217.1781 15.51305,18.38962"
         style="fill:none;stroke:#000000;stroke-width:3;stroke-linecap:butt;stroke-linejoin:miter;stroke-miterlimit:4;stroke-dasharray:none;stroke-opacity:1" />
      <path
         sodipodi:nodetypes="cc"
         inkscape:connector-curvature="0"
         id="path0712"
         d="m 118.14719,228.64888 13.33691,22.84953"
         style="fill:none;stroke:#000000;stroke-width:3;stroke-linecap:butt;stroke-linejoin:miter;stroke-miterlimit:4;stroke-dasharray:none;stroke-opacity:1" />
      <path
         sodipodi:nodetypes="cc"
         inkscape:connector-curvature="0"
         id="path8175"
         d="M 99.865994,236.48659 107.0179,261.9571"
         style="fill:none;stroke:#000000;stroke-width:3;stroke-linecap:butt;stroke-linejoin:miter;stroke-miterlimit:4;stroke-dasharray:none;stroke-opacity:1" />
      <path
         sodipodi:nodetypes="cc"
         inkscape:connector-curvature="0"
         id="path8601"
         d="m 80.166254,238.69544 -1.33032,26.4215"
         style="fill:none;stroke:#000000;stroke-width:3;stroke-linecap:butt;stroke-linejoin:miter;stroke-miterlimit:4;stroke-dasharray:none;stroke-opacity:1" />
      <path
         sodipodi:nodetypes="cc"
         inkscape:connector-curvature="0"
         id="path0779"
         d="m 60.815504,234.30911 -9.86958,24.54754"
         style="fill:none;stroke:#000000;stroke-width:3;stroke-linecap:butt;stroke-linejoin:miter;stroke-miterlimit:4;stroke-dasharray:none;stroke-opacity:1" />
      <path
         sodipodi:nodetypes="cc"
         inkscape:connector-curvature="0"
         id="path7156"
         d="m 43.148694,225.12484 -15.07568,21.74222"
         style="fill:none;stroke:#000000;stroke-width:3;stroke-linecap:butt;stroke-linejoin:miter;stroke-miterlimit:4;stroke-dasharray:none;stroke-opacity:1" />
      <path
         sodipodi:nodetypes="cc"
         inkscape:connector-curvature="0"
         id="path1839"
         d="m 27.575814,212.67348 -16.54931,18.26475"
         style="fill:none;stroke:#000000;stroke-width:3;stroke-linecap:butt;stroke-linejoin:miter;stroke-miterlimit:4;stroke-dasharray:none;stroke-opacity:1" />
      <path
         id="path34"
         d="m 78.365814,233.9828 c -9.72984,-1.21422 -25.9218,-8.38512 -36.32089,-16.08535 -8.16263,-6.04421 -15.65084,-13.08983 -15.65084,-14.72581 0,-0.89996 1.17256,-2.05909 7.74851,-7.65976 11.17794,-9.52014 19.1025,-14.31035 29.29316,-17.70703 17.34927,-5.78274 31.60153,-4.60803 49.325886,4.06559 9.15117,4.47824 15.93827,9.15301 23.38072,16.10404 3.19883,2.9876 5.66401,6.26657 5.23389,6.96165 -0.52854,0.85413 -8.2845,7.90967 -11.87878,10.80604 -7.26397,5.85351 -12.83117,9.0476 -22.32465,12.8084 -11.698596,4.63435 -21.057916,6.39927 -28.807006,5.43223 z"
         style="fill:#ff5555;stroke-width:0.37797582"
         inkscape:connector-curvature="0" />
    </g>
    <g
       id="g531"
       transform="matrix(0.21590993,0,0,0.21590993,-0.84010152,217.76258)">
      <path
         inkscape:connector-curvature="0"
         id="path5931"
         d="m 231.37899,244.5056 c -6.20941,-0.72619 -9.27257,-1.3036 -13.14097,-2.47712 -8.92602,-2.70779 -17.10419,-6.81879 -26.30609,-13.22352 -0.99252,-0.69082 -5.35869,-4.01836 -5.79782,-4.41863 -0.19465,-0.17743 -1.06778,-0.91528 -1.94028,-1.63967 -3.68926,-3.063 -10.16251,-9.39108 -10.97817,-10.73197 -0.47488,-0.78068 -0.50761,-1.83066 -0.0817,-2.62156 0.56626,-1.05155 7.4991,-7.89203 10.60716,-10.46584 0.52649,-0.436 1.24087,-1.03656 1.5875,-1.3346 1.24394,-1.06953 5.42184,-4.26731 6.89204,-5.27519 0.82462,-0.5653 1.97556,-1.3629 2.55764,-1.77244 0.58209,-0.40954 2.05282,-1.34142 3.2683,-2.07084 18.31266,-10.98958 34.60134,-14.15256 51.52126,-10.00454 5.821,1.42705 12.01155,3.84278 18.05905,7.04716 2.42944,1.28728 7.43016,4.25322 8.46667,5.0216 0.29104,0.21575 1.32292,0.93854 2.29305,1.6062 0.97014,0.66765 2.63702,1.88908 3.70417,2.71428 1.77643,1.37367 2.55466,2.00211 5.11483,4.13037 3.13072,2.60255 9.97222,9.35968 10.53229,10.40241 0.38819,0.72271 0.3947,1.67204 0.0167,2.42983 -0.27432,0.54989 -1.96899,2.40346 -4.48506,4.90559 -5.75042,5.71858 -12.92049,11.42203 -19.5572,15.55683 -2.81781,1.75555 -3.96073,2.40315 -7.9375,4.49753 -3.09139,1.6281 -9.69031,4.24515 -13.67324,5.42265 -2.51021,0.74211 -6.54148,1.57067 -9.61009,1.97518 -2.08243,0.27451 -9.6542,0.49683 -11.11249,0.32629 z m 8.20208,-5.28005 c 3.58173,-0.21107 10.20056,-1.59226 13.67014,-2.85263 0.92165,-0.33479 2.31071,-0.83392 3.08682,-1.10918 2.51407,-0.89163 7.21245,-3.11982 11.0243,-5.22822 5.21795,-2.88614 12.09234,-7.82627 17.72633,-12.73865 1.41329,-1.23227 6.79173,-6.42716 6.79173,-6.55994 0,-0.4596 -5.10732,-5.31469 -9.08562,-8.63693 -4.22943,-3.53196 -8.8423,-6.85525 -13.13939,-9.4661 -2.4703,-1.50093 -5.45036,-3.08975 -5.66144,-3.0184 -0.0853,0.0288 -0.0339,0.28555 0.11405,0.5705 0.80967,1.55901 1.98911,5.73077 2.37191,8.38954 0.29002,2.01433 0.2561,6.75256 -0.0631,8.81945 -1.0492,6.7933 -4.10547,12.80995 -8.96188,17.64266 -3.79136,3.77285 -8.05345,6.27957 -13.46409,7.91883 -2.53647,0.76847 -5.20852,1.12671 -8.46667,1.13513 -3.97899,0.0103 -7.07223,-0.51487 -10.81825,-1.83666 -2.49719,-0.88113 -6.5156,-3.09924 -8.52096,-4.70345 -2.66782,-2.13415 -5.65464,-5.45401 -7.33367,-8.15139 -1.45656,-2.33999 -3.16124,-6.40029 -3.85183,-9.17452 -0.79947,-3.21159 -1.07204,-8.43467 -0.60797,-11.65005 0.37975,-2.63123 1.66906,-7.14744 2.46512,-8.63491 0.28799,-0.53811 0.0317,-0.46423 -1.88831,0.54427 -3.35167,1.7605 -7.98639,4.75461 -12.21844,7.89329 -1.75179,1.29922 -3.77287,2.89513 -4.05694,3.20351 -0.0485,0.0527 -0.56445,0.47747 -1.14653,0.94402 -2.08726,1.673 -8.06127,7.31073 -8.40729,7.93405 -0.15859,0.28568 0.14933,0.65599 2.25976,2.71763 5.94943,5.81189 11.94876,10.56795 18.67114,14.80181 2.12002,1.33522 2.98834,1.82831 6.17964,3.50918 8.62772,4.54425 18.01571,7.3713 25.9684,7.81996 2.53875,0.14323 3.76075,0.12948 7.36307,-0.0828 z m -1.00728,-10.49844 c 2.89076,-0.31615 6.00518,-1.26422 8.76841,-2.66922 4.66432,-2.37164 9.02934,-6.74761 11.35478,-11.38328 4.26658,-8.50527 3.69143,-18.38315 -1.53304,-26.32963 -1.57534,-2.39608 -1.99921,-2.75712 -4.04676,-3.44681 -11.7206,-3.94794 -23.83147,-3.94436 -35.40833,0.0105 -1.99256,0.68069 -2.42406,1.0508 -4.00635,3.43634 -2.03406,3.06666 -3.45732,6.74637 -4.11876,10.64866 -0.3562,2.10145 -0.27586,6.2299 0.16778,8.62195 1.64632,8.87675 8.14693,16.56287 16.66289,19.70169 3.82414,1.40951 7.87146,1.87878 12.15938,1.40983 z m -5.71182,-13.12446 c -3.59949,-0.6536 -7.1497,-3.38159 -9.00784,-6.92164 -1.91855,-3.65517 -1.93863,-7.84427 -0.0557,-11.6126 1.65311,-3.30832 4.62146,-5.79247 8.16031,-6.82918 1.80131,-0.52769 5.15302,-0.52769 6.95433,0 3.59851,1.05419 6.58909,3.58633 8.24713,6.9829 0.81357,1.66659 1.15143,3.01313 1.27572,5.08434 0.1294,2.15656 -0.23014,3.8593 -1.27935,6.05866 -2.58986,5.42892 -8.30873,8.32444 -14.29463,7.23752 z"
         style="fill:#000000;stroke-width:0.17638899" />
      <path
         sodipodi:nodetypes="cc"
         inkscape:connector-curvature="0"
         id="path5664-3"
         d="m 211.69531,236.76931 -13.22917,23.8125"
         style="fill:none;stroke:#000000;stroke-width:3.5;stroke-linecap:butt;stroke-linejoin:miter;stroke-miterlimit:4;stroke-dasharray:none;stroke-opacity:1" />
      <path
         sodipodi:nodetypes="cc"
         inkscape:connector-curvature="0"
         id="path2621-3"
         d="M 184.92215,198.24329 167.89632,177.99116"
         style="fill:none;stroke:#000000;stroke-width:4.99993992;stroke-linecap:butt;stroke-linejoin:miter;stroke-miterlimit:4;stroke-dasharray:none;stroke-opacity:1" />
      <path
         sodipodi:nodetypes="cc"
         inkscape:connector-curvature="0"
         id="path0712-8"
         d="M 201.27278,186.85032 188.04494,163.93748"
         style="fill:none;stroke:#000000;stroke-width:4.99975014;stroke-linecap:butt;stroke-linejoin:miter;stroke-miterlimit:4;stroke-dasharray:none;stroke-opacity:1" />
      <path
         sodipodi:nodetypes="cc"
         inkscape:connector-curvature="0"
         id="path8175-8"
         d="m 219.59115,179.09984 -7.03043,-25.50432"
         style="fill:none;stroke:#000000;stroke-width:4.99947977;stroke-linecap:butt;stroke-linejoin:miter;stroke-miterlimit:4;stroke-dasharray:none;stroke-opacity:1" />
      <path
         sodipodi:nodetypes="cc"
         inkscape:connector-curvature="0"
         id="path8601-1"
         d="m 239.30119,176.98491 1.45624,-26.41486"
         style="fill:none;stroke:#000000;stroke-width:4.99936008;stroke-linecap:butt;stroke-linejoin:miter;stroke-miterlimit:4;stroke-dasharray:none;stroke-opacity:1" />
      <path
         sodipodi:nodetypes="cc"
         inkscape:connector-curvature="0"
         id="path0779-5"
         d="m 258.63081,181.46343 9.98647,-24.50022"
         style="fill:none;stroke:#000000;stroke-width:4.99981022;stroke-linecap:butt;stroke-linejoin:miter;stroke-miterlimit:4;stroke-dasharray:none;stroke-opacity:1" />
      <path
         sodipodi:nodetypes="cc"
         inkscape:connector-curvature="0"
         id="path7156-8"
         d="m 276.25363,190.7318 15.17915,-21.67011"
         style="fill:none;stroke:#000000;stroke-width:4.9998498;stroke-linecap:butt;stroke-linejoin:miter;stroke-miterlimit:4;stroke-dasharray:none;stroke-opacity:1" />
      <path
         sodipodi:nodetypes="cc"
         inkscape:connector-curvature="0"
         id="path1839-4"
         d="m 291.76698,203.25725 18.32464,-19.08408"
         style="fill:none;stroke:#000000;stroke-width:4.99983025;stroke-linecap:butt;stroke-linejoin:miter;stroke-miterlimit:4;stroke-dasharray:none;stroke-opacity:1" />
      <path
         sodipodi:nodetypes="cc"
         inkscape:connector-curvature="0"
         id="path7945-3"
         d="m 285.77863,220.89431 15.875,18.52083"
         style="fill:none;stroke:#000000;stroke-width:3.5;stroke-linecap:butt;stroke-linejoin:miter;stroke-miterlimit:4;stroke-dasharray:none;stroke-opacity:1" />
      <path
         sodipodi:nodetypes="cc"
         inkscape:connector-curvature="0"
         id="path9918-0"
         d="m 264.61198,234.12347 13.22915,26.45834"
         style="fill:none;stroke:#000000;stroke-width:3.5;stroke-linecap:butt;stroke-linejoin:miter;stroke-miterlimit:4;stroke-dasharray:none;stroke-opacity:1" />
      <path
         sodipodi:nodetypes="cc"
         inkscape:connector-curvature="0"
         id="path3087-8"
         d="m 236.83072,242.06097 v 27.78125"
         style="fill:none;stroke:#000000;stroke-width:3.5;stroke-linecap:butt;stroke-linejoin:miter;stroke-miterlimit:4;stroke-dasharray:none;stroke-opacity:1" />
      <path
         style="fill:none;stroke:#000000;stroke-width:3.5;stroke-linecap:butt;stroke-linejoin:miter;stroke-miterlimit:4;stroke-dasharray:none;stroke-opacity:1"
         d="m 190.52864,226.18597 -14.55208,18.52084"
         id="path7632-2"
         inkscape:connector-curvature="0"
         sodipodi:nodetypes="cc" />
      <path
         id="path23"
         d="m 229.5214,238.78734 c -15.31691,-2.1072 -32.50285,-11.11693 -45.50264,-23.8548 l -4.58816,-4.49571 4.00904,-3.76042 c 6.9085,-6.48007 21.32436,-16.75556 22.23268,-15.84725 0.15468,0.15468 -0.14245,1.69021 -0.66029,3.41229 -1.26478,4.20612 -1.24918,12.67256 0.0314,17.02907 3.11702,10.60411 11.29947,18.79217 21.96116,21.97623 3.79047,1.132 12.5955,1.26567 16.30344,0.2475 10.90669,-2.99488 19.88726,-12.04004 22.67238,-22.83543 1.1297,-4.37886 1.04201,-11.7745 -0.19558,-16.49355 -0.53971,-2.05797 -0.94054,-3.78812 -0.89072,-3.84477 0.0498,-0.0566 2.17024,1.18108 4.71208,2.75049 6.19515,3.82511 12.63428,8.77725 17.68919,13.60425 l 4.16419,3.97643 -2.29331,2.3809 c -5.8863,6.11112 -17.84186,14.71033 -26.34756,18.95087 -11.11085,5.53935 -23.73636,8.11922 -33.29728,6.8039 z"
         style="fill:#ffffff;stroke-width:0.53454036"
         inkscape:connector-curvature="0" />
      <path
         id="path25"
         d="m 229.67727,238.80226 c -15.51128,-2.16542 -31.9997,-10.70991 -45.10615,-23.37452 l -5.14052,-4.96722 4.00904,-3.77227 c 6.86592,-6.46041 21.32054,-16.77123 22.23268,-15.85909 0.15468,0.15468 -0.14245,1.69021 -0.66029,3.41229 -1.26412,4.2039 -1.24961,12.67835 0.0291,17.00112 3.02659,10.23158 11.07275,18.50376 21.16164,21.75607 5.03491,1.62309 13.90687,1.60142 18.70886,-0.0457 5.26121,-1.80462 8.99187,-4.13493 12.82953,-8.01378 7.92681,-8.01191 10.9489,-19.47638 8.04738,-30.5281 -0.57156,-2.17703 -0.9872,-4.01023 -0.92365,-4.07379 0.25921,-0.25921 8.66592,5.11931 12.88711,8.24504 2.48671,1.84138 6.59162,5.30769 9.12201,7.70291 l 4.60071,4.35495 -2.56816,2.63441 c -8.67209,8.89581 -23.97129,18.74541 -34.90776,22.47357 -7.92503,2.70158 -17.88651,3.95247 -24.32153,3.05411 z"
         style="fill:#ffffff;stroke-width:0.53454036"
         inkscape:connector-curvature="0" />
      <path
         id="path27"
         d="m 228.83206,227.66308 c -11.14424,-2.90914 -19.20001,-13.43906 -19.20001,-25.09688 0,-5.41452 3.09386,-13.46169 6.26521,-16.2959 0.58217,-0.52027 3.43975,-1.57709 6.35017,-2.34848 7.44222,-1.97251 18.49742,-2.07282 25.60417,-0.23232 6.31242,1.63478 7.30215,2.19605 9.24263,5.24143 5.17817,8.1266 5.34513,18.75665 0.42575,27.10773 -1.88413,3.19847 -6.44036,7.49105 -9.91932,9.34531 -6.10079,3.25169 -12.20387,3.9928 -18.7686,2.27911 z m 12.72387,-13.21145 c 5.70995,-2.84539 8.37269,-9.43182 6.44741,-15.94803 -0.86482,-2.92703 -5.4126,-7.51675 -8.2206,-8.29639 -6.68979,-1.85742 -12.78384,0.57596 -15.93308,6.36214 -3.55839,6.53794 -0.94775,14.83179 5.70516,18.12493 3.32485,1.64578 8.41818,1.54279 12.00111,-0.24265 z"
         style="fill:#0000ff;stroke-width:0.53454036"
         inkscape:connector-curvature="0" />
      <path
         id="path29"
         d="m 228.87546,227.34252 c -8.38095,-2.33575 -15.47624,-9.40651 -17.94709,-17.88504 -1.96022,-6.72633 0.0405,-16.98122 4.22218,-21.64083 5.08042,-5.66112 27.00748,-6.89298 37.88889,-2.1286 5.00226,2.19022 8.81319,12.79039 7.48342,20.81527 -1.56051,9.41738 -8.44654,17.43641 -17.59889,20.49452 -3.8127,1.27395 -10.15577,1.42958 -14.04851,0.34468 z m 12.12678,-12.39859 c 2.48529,-0.88393 5.74396,-4.15262 6.9013,-6.92251 0.86748,-2.07617 0.996,-8.06104 0.2171,-10.10969 -0.85457,-2.24771 -5.79147,-7.10827 -7.94016,-7.8174 -1.07086,-0.35342 -3.27713,-0.63005 -4.90284,-0.61473 -8.77542,0.0827 -14.89958,8.03018 -12.83133,16.65162 1.9578,8.16102 9.84983,11.90916 18.55593,8.81271 z"
         style="fill:#5599ff;stroke-width:0.53454036"
         inkscape:connector-curvature="0" />
    </g>
  </g>
</svg>
